<svg width="225" height="200" viewBox="0 0 225 200" fill="none" xmlns="http://www.w3.org/2000/svg">
<path d="M154.204 53.0974C152.286 53.0974 150.627 52.3968 149.226 50.9956C147.824 49.5944 147.124 47.9351 147.124 46.0177C147.124 42.2566 147.824 38.6431 149.226 35.177C150.627 31.7109 152.692 28.6504 155.42 25.9956L164.159 17.146C166.962 14.3437 168.363 10.9882 168.363 7.07965C168.363 5.16224 169.063 3.50295 170.465 2.10177C171.866 0.70059 173.525 0 175.442 0C177.36 0 179.019 0.70059 180.42 2.10177C181.822 3.50295 182.522 5.16224 182.522 7.07965C182.522 10.8407 181.822 14.4543 180.42 17.9204C179.019 21.3864 176.954 24.4469 174.226 27.1018L165.487 35.9513C162.684 38.7537 161.283 42.1091 161.283 46.0177C161.283 47.9351 160.583 49.5944 159.181 50.9956C157.78 52.3968 156.121 53.0974 154.204 53.0974ZM111.726 53.0974C109.808 53.0974 108.149 52.3968 106.748 50.9956C105.347 49.5944 104.646 47.9351 104.646 46.0177C104.646 42.2566 105.347 38.6431 106.748 35.177C108.149 31.7109 110.214 28.6504 112.942 25.9956L121.681 17.146C124.484 14.3437 125.885 10.9882 125.885 7.07965C125.885 5.16224 126.586 3.50295 127.987 2.10177C129.388 0.70059 131.047 0 132.965 0C134.882 0 136.541 0.70059 137.942 2.10177C139.344 3.50295 140.044 5.16224 140.044 7.07965C140.044 10.8407 139.344 14.4543 137.942 17.9204C136.541 21.3864 134.476 24.4469 131.748 27.1018L123.009 35.9513C120.207 38.7537 118.805 42.1091 118.805 46.0177C118.805 47.9351 118.105 49.5944 116.704 50.9956C115.302 52.3968 113.643 53.0974 111.726 53.0974ZM203.761 72.5664C206.711 72.5664 209.476 73.1195 212.058 74.2257C214.639 75.3319 216.888 76.8437 218.805 78.7611C220.723 80.6785 222.235 82.9277 223.341 85.5089C224.447 88.09 225 90.8555 225 93.8053V136.283C225 139.233 224.447 141.999 223.341 144.58C222.235 147.161 220.723 149.41 218.805 151.327C216.888 153.245 214.639 154.757 212.058 155.863C209.476 156.969 206.711 157.522 203.761 157.522H197.456C197.308 158.038 197.198 158.518 197.124 158.96C197.05 159.403 196.903 159.845 196.681 160.288V164.602C196.681 169.469 195.76 174.041 193.916 178.319C192.072 182.596 189.528 186.357 186.283 189.602C183.038 192.847 179.277 195.391 175 197.235C170.723 199.078 166.15 200 161.283 200H118.805C113.053 200 107.743 198.709 102.876 196.128C98.0089 193.547 93.9528 190.118 90.708 185.841H35.3982C30.531 185.841 25.9587 184.919 21.6814 183.075C17.4041 181.232 13.6431 178.724 10.3982 175.553C7.15339 172.382 4.60914 168.621 2.76549 164.27C0.921829 159.919 0 155.31 0 150.442V143.363H28.3186C28.3186 137.537 29.4248 132.043 31.6372 126.881C33.8496 121.718 36.91 117.22 40.8186 113.385C44.7271 109.55 49.2257 106.49 54.3142 104.204C59.4027 101.917 64.8968 100.811 70.7965 100.885C73.0089 100.885 75.1475 101.069 77.2124 101.438C79.2773 101.807 81.3422 102.323 83.4071 102.987V58.4071H196.681V72.5664H203.761ZM70.7965 115.044C66.8879 115.044 63.2375 115.782 59.8451 117.257C56.4528 118.732 53.4292 120.76 50.7743 123.341C48.1195 125.922 46.0914 128.909 44.6903 132.301C43.2891 135.693 42.5516 139.381 42.4779 143.363H83.4071V118.142C81.4897 117.183 79.4985 116.445 77.4336 115.929C75.3687 115.413 73.1563 115.118 70.7965 115.044ZM35.3982 171.681H84.1814C83.6652 169.543 83.4071 167.183 83.4071 164.602V157.522H15.3761C16.1136 159.587 17.146 161.468 18.4735 163.164C19.8009 164.86 21.3127 166.372 23.0089 167.699C24.705 169.027 26.6224 169.985 28.7611 170.575C30.8997 171.165 33.1121 171.534 35.3982 171.681ZM86.615 179.093V179.204L86.7257 179.425V179.314L86.615 179.093ZM182.522 164.602V72.5664H97.5664V164.602C97.5664 167.552 98.1195 170.317 99.2257 172.898C100.332 175.479 101.844 177.729 103.761 179.646C105.678 181.563 107.928 183.075 110.509 184.181C113.09 185.288 115.855 185.841 118.805 185.841H161.283C164.233 185.841 166.999 185.288 169.58 184.181C172.161 183.075 174.41 181.563 176.327 179.646C178.245 177.729 179.757 175.479 180.863 172.898C181.969 170.317 182.522 167.552 182.522 164.602ZM210.841 136.283V93.8053C210.841 91.8879 210.14 90.2286 208.739 88.8274C207.338 87.4263 205.678 86.7257 203.761 86.7257H196.681V143.363H203.761C205.678 143.363 207.338 142.662 208.739 141.261C210.14 139.86 210.841 138.201 210.841 136.283Z" fill="#6C733D"/>
</svg>
