<svg width="200" height="200" viewBox="0 0 200 200" fill="none" xmlns="http://www.w3.org/2000/svg">
<path fill-rule="evenodd" clip-rule="evenodd" d="M187.244 16.2732C195.926 24.9657 200.212 35.0759 199.993 46.164C199.806 56.7247 195.542 66.9777 189.684 76.5384C181.881 89.3079 169.957 102.781 156.626 116.594L149.241 124.166L141.658 131.792L127.701 145.727L119.568 153.749C104.71 168.222 90.2253 181.299 76.5429 189.673C66.9816 195.53 56.728 199.783 46.1667 199.992C35.0779 200.212 24.9672 195.926 16.2742 187.233C3.22912 174.189 -2.36474 150.474 0.921241 125.199C4.14129 100.407 15.9884 72.4174 40.1003 46.9553L43.65 43.3068C69.9929 17.0425 99.336 4.28391 125.195 0.921187C150.483 -2.36461 174.199 3.22894 187.244 16.2732ZM171.705 31.823C165.319 25.4383 149.637 19.9107 128.031 22.7129C123.305 23.3283 118.371 24.3393 113.304 25.8009C116.162 29.0977 119.898 31.4604 124.668 33.0538C126.054 33.4962 127.339 34.2095 128.448 35.1525C129.557 36.0954 130.467 37.2492 131.126 38.5468C131.785 39.8444 132.18 41.26 132.287 42.7114C132.395 44.1628 132.213 45.6211 131.752 47.0017C131.292 48.3822 130.561 49.6575 129.604 50.7535C128.646 51.8495 127.48 52.7444 126.174 53.3862C124.868 54.028 123.447 54.404 121.994 54.4923C120.541 54.5806 119.086 54.3794 117.711 53.9005C106.611 50.2081 98.0611 43.5486 92.3464 34.2407C82.3539 39.5034 73.0701 46.0135 64.7177 53.6148C66.4651 56.2192 68.806 59.1094 71.6414 61.9446C76.3011 66.5931 81.0707 69.9229 84.5655 71.4284L85.8074 71.9119C88.5734 72.8329 90.8603 74.8149 92.1649 77.422C93.4696 80.029 93.685 83.0475 92.764 85.8134C91.8429 88.5792 89.8608 90.866 87.2536 92.1705C84.6465 93.4751 81.6278 93.6906 78.8617 92.7696C70.7512 90.0662 62.5307 83.9012 56.1126 77.4835C53.6738 75.0508 51.3907 72.4669 49.2769 69.747C42.2837 78.1837 36.3968 87.4789 31.759 97.407C34.7372 104.045 39.6277 108.33 46.958 110.77C49.6866 111.721 51.9309 113.708 53.2051 116.301C54.4794 118.894 54.6811 121.885 53.7664 124.626C52.8518 127.366 50.8946 129.637 48.3183 130.945C45.7421 132.254 42.7542 132.495 40.0014 131.617C33.9946 129.677 28.4246 126.582 23.6044 122.507C23.2528 124.375 22.945 126.221 22.7252 128.034C19.9118 149.639 25.4398 165.321 31.8249 171.706C36.7264 176.607 41.2323 178.112 45.7491 178.024C50.7825 177.925 57.1017 175.816 65.0694 170.936C75.5318 164.541 86.9173 154.617 99.5008 142.584L106.479 135.804L117.414 124.957L132.273 110.067L139.24 102.968C152.791 89.0112 163.957 76.4835 170.935 65.0766C175.815 57.1094 177.925 50.7905 178.024 45.7574C178.112 41.2518 176.606 36.7352 171.705 31.823Z" fill="#F2F2F2"/>
</svg>
