<svg width="200" height="200" viewBox="0 0 200 200" fill="none" xmlns="http://www.w3.org/2000/svg">
<path d="M100 200C80.2219 200 60.8879 194.135 44.443 183.147C27.9981 172.159 15.1809 156.541 7.61209 138.268C0.0433283 119.996 -1.937 99.8891 1.92152 80.491C5.78004 61.0929 15.3041 43.2746 29.2894 29.2894C43.2746 15.3041 61.0929 5.78004 80.491 1.92152C99.8891 -1.937 119.996 0.0433283 138.268 7.61209C156.541 15.1809 172.159 27.9981 183.147 44.443C194.135 60.8879 200 80.2219 200 100C200 126.522 189.464 151.957 170.711 170.711C151.957 189.464 126.522 200 100 200ZM100 14.2858C83.0473 14.2858 66.4754 19.3128 52.3797 28.7312C38.2841 38.1496 27.2979 51.5364 20.8104 67.1986C14.3229 82.8608 12.6254 100.095 15.9327 116.722C19.24 133.349 27.4035 148.622 39.3909 160.609C51.3782 172.597 66.6511 180.76 83.278 184.067C99.9049 187.375 117.139 185.677 132.801 179.19C148.464 172.702 161.85 161.716 171.269 147.62C180.687 133.525 185.714 116.953 185.714 100C185.714 77.2672 176.684 55.4654 160.609 39.3909C144.535 23.3163 122.733 14.2858 100 14.2858Z" fill="#F2F2F2"/>
<path d="M132.783 142.869L92.8545 102.94V35.7261H107.14V97.0118L142.854 132.797L132.783 142.869Z" fill="#F2F2F2"/>
</svg>
