<svg width="172" height="200" viewBox="0 0 172 200" fill="none" xmlns="http://www.w3.org/2000/svg">
<path d="M9.01339e-07 78.5577V67.8434C-0.000381525 63.1566 1.02421 58.5264 3.00195 54.2773C4.9797 50.0282 7.86276 46.263 11.4491 43.2456C15.0354 40.2281 19.2382 38.0315 23.763 36.8096C28.2877 35.5878 33.025 35.3702 37.6427 36.1722C40.6482 25.745 46.9627 16.5778 55.6337 10.0531C64.3048 3.52842 74.8622 0 85.7139 0C96.5656 0 107.123 3.52842 115.794 10.0531C124.465 16.5778 130.78 25.745 133.785 36.1722C138.403 35.3702 143.14 35.5878 147.665 36.8096C152.19 38.0315 156.392 40.2281 159.979 43.2456C163.565 46.263 166.448 50.0282 168.426 54.2773C170.404 58.5264 171.428 63.1566 171.428 67.8434V78.5577C171.431 100.056 163.355 120.771 148.802 136.594C134.249 152.418 114.28 162.194 92.8567 163.986V185.7H78.5711V163.986C57.1475 162.194 37.1793 152.418 22.626 136.594C8.07264 120.771 -0.00311502 100.056 9.01339e-07 78.5577ZM64.0854 71.4006H107.342C106.707 65.74 107.59 60.0125 109.9 54.8057C112.209 49.5989 115.863 45.1005 120.485 41.7721C118.635 33.9402 114.195 26.9623 107.884 21.9687C101.573 16.9751 93.7614 14.2582 85.7139 14.2582C77.6664 14.2582 69.8546 16.9751 63.5438 21.9687C57.233 26.9623 52.7929 33.9402 50.9426 41.7721C55.5673 45.1017 59.2223 49.6025 61.5321 54.812C63.8418 60.0215 64.7231 65.752 64.0854 71.4149V71.4006ZM47.8141 71.4006C48.3438 69.0489 48.3377 66.6083 47.7963 64.2593C47.2549 61.9103 46.1921 59.7132 44.6864 57.8307C43.1808 55.9482 41.271 54.4285 39.0984 53.3841C36.9258 52.3398 34.5461 51.7975 32.1356 51.7975C29.725 51.7975 27.3453 52.3398 25.1728 53.3841C23.0002 54.4285 21.0903 55.9482 19.5847 57.8307C18.0791 59.7132 17.0162 61.9103 16.4748 64.2593C15.9334 66.6083 15.9273 69.0489 16.4571 71.4006H47.8141ZM123.614 71.4006H154.956C155.486 69.0489 155.48 66.6083 154.939 64.2593C154.397 61.9103 153.334 59.7132 151.829 57.8307C150.323 55.9482 148.413 54.4285 146.241 53.3841C144.068 52.3398 141.689 51.7975 139.278 51.7975C136.867 51.7975 134.488 52.3398 132.315 53.3841C130.143 54.4285 128.233 55.9482 126.727 57.8307C125.221 59.7132 124.159 61.9103 123.617 64.2593C123.076 66.6083 123.07 69.0489 123.599 71.4006H123.614ZM85.7139 149.986C103.424 149.986 120.502 143.407 133.634 131.525C146.767 119.644 155.018 103.308 156.785 85.6862H14.6428C16.4102 103.308 24.6608 119.644 37.7934 131.525C50.926 143.407 68.0042 149.986 85.7139 149.986ZM57.1426 185.714H114.285C116.18 185.714 117.996 186.467 119.336 187.806C120.675 189.146 121.428 190.963 121.428 192.857C121.428 194.752 120.675 196.568 119.336 197.908C117.996 199.247 116.18 200 114.285 200H57.1426C55.2482 200 53.4314 199.247 52.0919 197.908C50.7523 196.568 49.9998 194.752 49.9998 192.857C49.9998 190.963 50.7523 189.146 52.0919 187.806C53.4314 186.467 55.2482 185.714 57.1426 185.714Z" fill="#6C733D"/>
</svg>
