<svg width="212" height="200" viewBox="0 0 212 200" fill="none" xmlns="http://www.w3.org/2000/svg">
<path d="M211.463 144.605H200.333V177.715C200.333 181.982 199.358 185.692 197.406 188.845C195.455 191.998 192.906 194.595 189.76 196.636C186.607 198.676 183.127 199.789 179.321 199.975C175.514 200.16 171.76 199.325 168.058 197.471L12.2426 120.12C7.97628 118.079 4.8674 115.249 2.91601 111.628C0.964611 108.007 -0.0073776 104.256 4.21577e-05 100.376C4.21577e-05 96.4728 0.97574 92.6665 2.92714 88.9566C4.87853 85.2467 7.9837 82.3716 12.2426 80.3311L168.058 2.4237C171.767 0.56876 175.522 -0.221442 179.321 0.0530888C183.12 0.32762 186.599 1.48881 189.76 3.53666C192.914 5.5771 195.466 8.17401 197.417 11.3274C199.369 14.4808 200.341 18.1907 200.333 22.457V55.5677H211.463V77.827H166.945V55.5677H178.074V23.0135L129.104 47.2205C134.112 55.1967 137.963 63.6367 140.656 72.5404C143.35 81.4441 144.693 90.6261 144.685 100.086C144.685 109.546 143.339 118.821 140.645 127.91C137.952 137 134.012 145.532 128.826 153.508L177.796 177.715V144.605H166.945V122.346H211.463V144.605ZM108.514 143.214C112.966 136.907 116.397 130.088 118.809 122.757C121.22 115.427 122.426 107.87 122.426 100.086C122.426 92.2955 121.22 84.8275 118.809 77.6823C116.397 70.5371 113.059 63.722 108.792 57.2371L22.2593 100.086L108.514 143.214Z" fill="#F2F2F2"/>
</svg>
