<svg width="229" height="200" viewBox="0 0 229 200" fill="none" xmlns="http://www.w3.org/2000/svg">
<path d="M71.5678 28.6593C67.772 28.6593 64.1317 30.1671 61.4477 32.8512C58.7636 35.5352 57.2557 39.1756 57.2557 42.9714C57.2557 46.7672 58.7636 50.4075 61.4477 53.0915C64.1317 55.7756 67.772 57.2835 71.5678 57.2835C75.3636 57.2835 79.004 55.7756 81.688 53.0915C84.372 50.4075 85.8799 46.7672 85.8799 42.9714C85.8799 39.1756 84.372 35.5352 81.688 32.8512C79.004 30.1671 75.3636 28.6593 71.5678 28.6593ZM31.0646 28.6593C34.0215 20.2791 39.505 13.0223 46.7592 7.8894C54.0135 2.75646 62.6813 0 71.5678 0C80.4544 0 89.1222 2.75646 96.3764 7.8894C103.631 13.0223 109.114 20.2791 112.071 28.6593H214.689C218.485 28.6593 222.125 30.1671 224.809 32.8512C227.493 35.5352 229.001 39.1756 229.001 42.9714C229.001 46.7672 227.493 50.4075 224.809 53.0915C222.125 55.7756 218.485 57.2835 214.689 57.2835H112.071C109.114 65.6636 103.631 72.9204 96.3764 78.0533C89.1222 83.1863 80.4544 85.9427 71.5678 85.9427C62.6813 85.9427 54.0135 83.1863 46.7592 78.0533C39.505 72.9204 34.0215 65.6636 31.0646 57.2835H14.3194C10.5236 57.2835 6.88331 55.7756 4.19927 53.0915C1.51523 50.4075 0.00735285 46.7672 0.00735285 42.9714C0.00735285 39.1756 1.51523 35.5352 4.19927 32.8512C6.88331 30.1671 10.5236 28.6593 14.3194 28.6593H31.0646ZM157.433 142.717C153.637 142.717 149.997 144.224 147.313 146.908C144.629 149.592 143.121 153.233 143.121 157.029C143.121 160.824 144.629 164.465 147.313 167.149C149.997 169.833 153.637 171.341 157.433 171.341C161.229 171.341 164.869 169.833 167.553 167.149C170.237 164.465 171.745 160.824 171.745 157.029C171.745 153.233 170.237 149.592 167.553 146.908C164.869 144.224 161.229 142.717 157.433 142.717ZM116.93 142.717C119.887 134.336 125.37 127.08 132.624 121.947C139.879 116.814 148.546 114.057 157.433 114.057C166.32 114.057 174.987 116.814 182.242 121.947C189.496 127.08 194.979 134.336 197.936 142.717H214.681C218.477 142.717 222.118 144.224 224.802 146.908C227.486 149.592 228.994 153.233 228.994 157.029C228.994 160.824 227.486 164.465 224.802 167.149C222.118 169.833 218.477 171.341 214.681 171.341H197.936C194.979 179.721 189.496 186.978 182.242 192.111C174.987 197.244 166.32 200 157.433 200C148.546 200 139.879 197.244 132.624 192.111C125.37 186.978 119.887 179.721 116.93 171.341H14.3121C10.5163 171.341 6.87596 169.833 4.19192 167.149C1.50788 164.465 0 160.824 0 157.029C0 153.233 1.50788 149.592 4.19192 146.908C6.87596 144.224 10.5163 142.717 14.3121 142.717H116.93Z" fill="#6C733D"/>
</svg>
