<svg width="236" height="200" viewBox="0 0 236 200" fill="none" xmlns="http://www.w3.org/2000/svg">
<path d="M153.081 181.133L153.081 181.133C146.97 185.9 141.003 190.496 135.1 193.903C129.197 197.31 123.404 199.5 117.647 199.5C111.89 199.5 106.097 197.307 100.194 193.9C94.2907 190.493 88.3236 185.9 82.2131 181.145C78.9367 178.593 75.5501 176.016 72.1032 173.393C57.3124 162.137 41.4116 150.036 28.3453 135.508C12.2513 117.613 0.5 96.0773 0.5 67.9867C0.5 39.9285 16.5667 15.9685 39.1763 5.76426C61.7559 -4.42653 90.9469 -0.931531 117.289 26.1048L117.647 26.4723L118.005 26.1049C144.347 -0.925684 173.538 -4.41783 196.118 5.77441C218.727 15.9801 234.794 39.9401 234.794 67.9983C234.794 96.0831 223.046 117.619 206.953 135.512C193.865 150.065 177.931 162.181 163.115 173.447C159.695 176.048 156.334 178.603 153.081 181.133Z" fill="#6C733D" stroke="#6C733D"/>
</svg>
