<svg width="232" height="200" viewBox="0 0 232 200" fill="none" xmlns="http://www.w3.org/2000/svg">
<path d="M165.996 0C145.907 0 128.077 7.92981 115.997 21.5595C103.918 7.92981 86.0879 0 65.9984 0C48.5011 0.0211705 31.7264 6.98135 19.3539 19.3539C6.98135 31.7264 0.0211705 48.5011 0 65.9984C0 138.337 105.807 196.135 110.307 198.565C112.056 199.507 114.011 200 115.997 200C117.983 200 119.938 199.507 121.687 198.565C126.187 196.135 231.994 138.337 231.994 65.9984C231.973 48.5011 225.013 31.7264 212.641 19.3539C200.268 6.98135 183.493 0.0211705 165.996 0ZM160.506 142.357C146.579 154.175 131.691 164.811 115.997 174.156C100.303 164.811 85.4153 154.175 71.4883 142.357C49.8188 123.767 23.9994 95.4177 23.9994 65.9984C23.9994 54.8596 28.4243 44.177 36.3006 36.3006C44.177 28.4243 54.8596 23.9994 65.9984 23.9994C83.798 23.9994 98.6976 33.3992 104.887 48.5388C105.788 50.7459 107.326 52.6345 109.305 53.964C111.284 55.2935 113.613 56.0035 115.997 56.0035C118.381 56.0035 120.711 55.2935 122.69 53.964C124.668 52.6345 126.206 50.7459 127.107 48.5388C133.297 33.3992 148.196 23.9994 165.996 23.9994C177.135 23.9994 187.817 28.4243 195.694 36.3006C203.57 44.177 207.995 54.8596 207.995 65.9984C207.995 95.4177 182.176 123.767 160.506 142.357Z" fill="#6C733D"/>
</svg>
