<svg width="212" height="200" viewBox="0 0 212 200" fill="none" xmlns="http://www.w3.org/2000/svg">
<path d="M13.3136 69.3699V69.2314C13.3134 55.5555 17.3638 42.1858 24.9536 30.8093C32.5434 19.4327 43.3326 10.5589 55.9602 5.30747C68.5877 0.0560203 82.4876 -1.33781 95.9064 1.30183C109.325 3.94147 121.662 10.4963 131.359 20.1394C138.989 16.3734 147.512 14.79 155.985 15.5641C164.459 16.3382 172.554 19.4397 179.375 24.5259C186.196 29.6121 191.479 36.4849 194.639 44.3852C197.799 52.2854 198.714 60.9055 197.282 69.293C199.387 69.4884 201.429 70.1155 203.281 71.1354C205.133 72.1552 206.755 73.5458 208.046 75.2204C209.336 76.895 210.268 78.8176 210.782 80.8682C211.297 82.9189 211.383 85.0536 211.036 87.139C204.082 128.97 186.882 155.446 159.467 166.585V176.923C159.467 183.044 157.035 188.913 152.708 193.241C148.38 197.569 142.51 200 136.39 200H74.8518C68.7314 200 62.8618 197.569 58.534 193.241C54.2063 188.913 51.775 183.044 51.775 176.923V166.585C24.3597 155.446 7.15982 128.97 0.206009 87.139C-0.129593 85.109 -0.0545509 83.0322 0.426694 81.0316C0.907939 79.0311 1.78561 77.1474 3.00776 75.492C4.22991 73.8366 5.77171 72.4433 7.5419 71.3943C9.3121 70.3454 11.2747 69.6623 13.3136 69.3853V69.3699ZM28.6982 69.2314H44.0827C44.0827 59.0309 48.1349 49.2481 55.3478 42.0352C62.5607 34.8223 72.3435 30.7701 82.544 30.7701C92.7446 30.7701 102.527 34.8223 109.74 42.0352C116.953 49.2481 121.005 59.0309 121.005 69.2314H136.39C136.39 54.9506 130.717 41.2547 120.619 31.1566C110.521 21.0586 96.8249 15.3856 82.544 15.3856C68.2632 15.3856 54.5673 21.0586 44.4693 31.1566C34.3712 41.2547 28.6982 54.9506 28.6982 69.2314ZM59.4672 69.2314H105.621C105.621 63.1111 103.19 57.2414 98.8618 52.9137C94.5341 48.5859 88.6644 46.1546 82.544 46.1546C76.4237 46.1546 70.554 48.5859 66.2263 52.9137C61.8985 57.2414 59.4672 63.1111 59.4672 69.2314ZM165.097 69.2314H181.574C182.736 64.6849 182.844 59.9332 181.891 55.3384C180.938 50.7437 178.948 46.4271 176.074 42.7177C173.2 39.0083 169.517 36.0038 165.306 33.9334C161.095 31.8629 156.467 30.781 151.774 30.7701C148.082 30.7701 144.574 31.4162 141.313 32.6009C144.036 36.9701 146.282 41.6777 148.005 46.6162C150.935 45.8894 154.015 46.039 156.861 47.0465C159.706 48.054 162.194 49.875 164.014 52.2835C165.835 54.692 166.908 57.582 167.1 60.5949C167.293 63.6077 166.596 66.6108 165.097 69.2314ZM144.082 169.231H67.1595V176.923C67.1595 178.963 67.9699 180.92 69.4125 182.362C70.8551 183.805 72.8117 184.615 74.8518 184.615H136.39C138.43 184.615 140.387 183.805 141.829 182.362C143.272 180.92 144.082 178.963 144.082 176.923V169.231ZM61.7442 153.846H149.498C173.897 146 189.343 123.816 195.867 84.616H15.3752C21.8982 123.816 37.3443 146 61.7442 153.846Z" fill="#6C733D"/>
</svg>
