<svg width="167" height="200" viewBox="0 0 167 200" fill="none" xmlns="http://www.w3.org/2000/svg">
<path d="M92.2222 0C86.1111 13.9076 80 27.8152 80.0926 41.3638C80.1852 46.7474 81.2037 51.9515 82.7778 57.5146C82.0547 56.1074 81.2188 54.7574 80.2778 53.4769C72.5 42.9789 57.1296 34.0063 41.6667 25.0336C41.6667 32.2118 41.6667 39.3001 43.3333 46.2091L101.852 102.916V85.1503C115.741 77.0749 128.889 68.8201 135.833 59.3988C143.519 48.9906 143.519 36.9672 143.519 25.0336C128.056 34.0063 112.685 42.9789 104.907 53.4769C103.981 54.7331 103.241 55.9892 102.5 57.2454C104.167 51.5926 105.185 45.8502 105.093 40.1974C105 26.6487 98.6111 13.2795 92.2222 0ZM11.8518 38.4926L0 49.8878L42.963 91.5209C43.9815 96.8147 45.8333 101.75 49.3518 106.505C56.2963 115.926 69.4444 124.181 83.3333 132.257V152.714L80.2778 147.69C72.5 137.192 57.1296 128.219 41.6667 119.246C41.6667 131.18 41.6667 143.203 49.3518 153.611C56.2963 163.033 69.4444 171.288 83.3333 179.363V195.514H101.852V179.363C108.704 175.415 115.278 171.377 121.018 167.16L154.907 200L166.667 188.515C111.111 134.769 65.7407 90.7133 11.8518 38.4926ZM143.519 72.14C128.056 81.1126 112.685 90.0852 104.907 100.583L102.963 103.903L120.37 120.682C126.574 116.196 132.13 111.53 135.833 106.505C143.519 96.0969 143.519 84.0736 143.519 72.14ZM143.519 119.246C138.241 122.297 133.148 125.348 128.241 128.488L141.574 141.409C143.519 134.231 143.519 126.694 143.519 119.246Z" fill="#6C733D"/>
</svg>
