<svg width="267" height="200" viewBox="0 0 267 200" fill="none" xmlns="http://www.w3.org/2000/svg">
<path d="M250 200C250 200 266.667 200 266.667 183.333C266.667 166.667 250 116.667 183.333 116.667C116.667 116.667 100 166.667 100 183.333C100 200 116.667 200 116.667 200H250ZM117.033 183.333C116.91 183.316 116.788 183.294 116.667 183.267C116.683 178.867 119.45 166.1 129.333 154.6C138.533 143.817 154.7 133.333 183.333 133.333C211.95 133.333 228.117 143.833 237.333 154.6C247.217 166.1 249.967 178.883 250 183.267L249.867 183.3C249.789 183.313 249.711 183.324 249.633 183.333H117.033ZM183.333 83.3333C192.174 83.3333 200.652 79.8214 206.904 73.5702C213.155 67.319 216.667 58.8405 216.667 50C216.667 41.1594 213.155 32.681 206.904 26.4298C200.652 20.1786 192.174 16.6667 183.333 16.6667C174.493 16.6667 166.014 20.1786 159.763 26.4298C153.512 32.681 150 41.1594 150 50C150 58.8405 153.512 67.319 159.763 73.5702C166.014 79.8214 174.493 83.3333 183.333 83.3333ZM233.333 50C233.333 56.5661 232.04 63.0679 229.527 69.1342C227.015 75.2004 223.332 80.7124 218.689 85.3553C214.046 89.9983 208.534 93.6812 202.467 96.194C196.401 98.7067 189.899 100 183.333 100C176.767 100 170.265 98.7067 164.199 96.194C158.133 93.6812 152.621 89.9983 147.978 85.3553C143.335 80.7124 139.652 75.2004 137.139 69.1342C134.627 63.0679 133.333 56.5661 133.333 50C133.333 36.7392 138.601 24.0215 147.978 14.6447C157.355 5.26784 170.073 0 183.333 0C196.594 0 209.312 5.26784 218.689 14.6447C228.065 24.0215 233.333 36.7392 233.333 50ZM115.6 121.333C108.933 119.234 102.061 117.854 95.1 117.217C91.1889 116.845 87.2621 116.661 83.3333 116.667C16.6667 116.667 0 166.667 0 183.333C0 194.45 5.55 200 16.6667 200H86.9333C84.4626 194.797 83.2304 189.092 83.3333 183.333C83.3333 166.5 89.6167 149.3 101.5 134.933C105.55 130.033 110.267 125.45 115.6 121.333ZM82 133.333C72.1359 148.155 66.8073 165.53 66.6667 183.333H16.6667C16.6667 179 19.4 166.167 29.3333 154.6C38.4167 144 54.2 133.667 82 133.35V133.333ZM25 58.3333C25 45.0725 30.2678 32.3548 39.6447 22.978C49.0215 13.6012 61.7392 8.33333 75 8.33333C88.2608 8.33333 100.979 13.6012 110.355 22.978C119.732 32.3548 125 45.0725 125 58.3333C125 71.5942 119.732 84.3118 110.355 93.6887C100.979 103.065 88.2608 108.333 75 108.333C61.7392 108.333 49.0215 103.065 39.6447 93.6887C30.2678 84.3118 25 71.5942 25 58.3333ZM75 25C66.1594 25 57.681 28.5119 51.4298 34.7631C45.1786 41.0143 41.6667 49.4928 41.6667 58.3333C41.6667 67.1739 45.1786 75.6523 51.4298 81.9036C57.681 88.1548 66.1594 91.6667 75 91.6667C83.8405 91.6667 92.319 88.1548 98.5702 81.9036C104.821 75.6523 108.333 67.1739 108.333 58.3333C108.333 49.4928 104.821 41.0143 98.5702 34.7631C92.319 28.5119 83.8405 25 75 25Z" fill="#3B7302"/>
</svg>
