<svg width="255" height="201" viewBox="0 0 255 201" fill="none" xmlns="http://www.w3.org/2000/svg">
<path d="M145.862 1.68588C143.36 2.48209 141.654 3.96077 131.872 13.7428C121.805 23.8092 120.611 25.231 119.701 28.0178C117.426 35.013 119.815 46.615 125.786 57.8188C130.336 66.2359 134.943 72.3213 145.009 83.2408C150.071 88.7005 155.701 95.4114 157.578 98.1982C162.412 105.421 162.184 105.762 155.758 101.383C150.526 97.7432 147.17 94.8996 138.526 86.7668C130.677 79.3734 124.763 74.7668 117.426 70.4445C104.004 62.5392 90.7529 59.6388 83.8713 63.2217C82.6201 63.8473 76.7623 69.307 70.7338 75.3924C60.9518 85.2882 59.8143 86.6531 59.1319 89.2124C58.1082 92.8522 58.2219 99.2788 59.4162 103.829C62.7717 117.08 70.677 129.478 85.5206 145.175C89.8429 149.668 94.3358 154.843 95.587 156.72C97.9757 160.246 99.6818 163.772 99.3975 164.568C99.0562 165.592 88.7055 157.516 80.4021 149.724C70.3926 140.397 62.8854 134.596 55.3783 130.445C43.037 123.62 32.5725 121.118 25.236 123.336C22.7905 124.075 21.198 125.383 11.2454 135.45C-0.811537 147.506 -1.20964 148.132 1.12212 151.089C2.82829 153.251 4.70508 153.478 7.60556 151.772C8.9705 150.976 10.9042 150.35 12.0416 150.35C15.6246 150.35 22.8473 152.568 28.6483 155.469C36.6673 159.507 43.492 164.511 54.184 174.407C59.2456 179.071 65.1603 184.189 67.3784 185.838C83.0182 197.497 98.6013 202.957 108.326 200.17C111.625 199.203 112.194 198.692 122.943 188C133.578 177.308 134.146 176.625 135.056 173.44C137.9 163.658 133.066 148.416 122.374 133.345C120.44 130.615 114.753 123.961 109.805 118.615C104.857 113.326 99.9093 107.696 98.8287 106.16C96.4401 102.919 94.279 98.71 94.5065 97.9707C94.7339 97.3451 101.843 102.122 106.336 105.933C108.042 107.355 112.364 111.336 115.947 114.748C129.824 127.886 142.677 135.734 155.53 138.976C161.616 140.511 167.417 140.341 170.943 138.521C172.194 137.895 178.052 132.435 184.023 126.35C196.194 114.009 196.365 113.724 196.308 105.705C196.251 97.6863 192.213 86.6531 185.787 76.8711C181.407 70.1033 176.858 64.5866 168.952 56.3402C165.142 52.3591 160.933 47.5818 159.568 45.705C157.237 42.5202 154.791 37.4586 155.303 36.8898C155.929 36.3211 166.677 44.7951 174.583 52.1885C179.417 56.6814 184.706 61.4018 186.355 62.7099C203.531 76.1317 222.185 82.3308 231.341 77.6104C232.479 76.9848 238.223 71.6957 244.137 65.781C255.91 53.8947 256.251 53.3259 253.123 50.198C251.076 48.2074 250.052 48.1505 247.095 49.9705C245.787 50.7667 243.967 51.3923 242.773 51.3923C239.133 51.3923 231.967 49.1743 226.109 46.2738C218.09 42.2358 211.663 37.5154 200.175 26.9372C188.744 16.4727 182.488 11.7523 174.014 7.37311C162.981 1.68588 152.516 -0.418399 145.862 1.68588ZM161.957 11.866C171.682 15.1077 181.919 22.1599 194.772 34.3306C203.246 42.3496 208.649 46.6719 215.758 51.051C220.82 54.2359 228.668 57.762 233.161 58.7857C234.867 59.2406 236.46 59.6956 236.687 59.9231C236.915 60.0937 234.924 62.4255 232.308 65.0416L227.417 69.8758L222.754 69.8189C218.886 69.8189 217.237 69.4777 212.915 67.8284C202.507 63.8473 194.09 58.0463 181.578 46.2169C177.256 42.1221 171.057 36.7192 167.758 34.2737C160.933 29.0983 149.502 23.0699 143.53 21.5343C141.369 20.9656 139.436 20.34 139.151 20.1125C138.924 19.9419 141.028 17.4964 143.872 14.7665L148.99 9.70487L153.142 9.98923C155.36 10.1598 159.341 11.0129 161.957 11.866ZM141.369 30.4064L145.464 31.6007L146.09 36.5486C147.17 45.0226 150.469 50.198 163.72 64.1317C176.914 78.0654 183.568 88.5299 186.526 100.075C188.403 107.468 187.834 110.938 184.478 111.791C182.26 112.359 173.559 110.938 172.592 109.857C172.251 109.459 171.625 107.696 171.17 106.047C169.123 97.402 164.459 90.5773 151.322 76.7004C140.516 65.2691 133.635 55.2027 130.222 45.8757C127.037 37.1173 126.867 30.4633 129.824 29.2121C131.53 28.4727 136.478 28.9846 141.369 30.4064ZM97.805 71.5819C102.867 72.7763 114.127 78.4635 119.985 82.8427C122.658 84.8332 128.573 89.8948 133.066 94.1034C142.734 103.032 147.682 107.127 153.426 110.824C159.227 114.521 167.587 118.388 172.308 119.525C174.469 120.037 176.289 120.663 176.289 120.833C176.289 121.004 174.014 123.336 171.227 126.066C166.222 131.013 166.222 131.013 163.208 131.013C158.602 131.013 153.881 129.592 146.431 125.895C138.014 121.743 132.327 117.535 121.691 107.639C112.08 98.7669 107.075 94.6721 101.331 90.9185C95.5302 87.2218 87.1699 83.3545 82.4495 82.2171C80.2884 81.7052 78.4685 81.0796 78.4685 80.909C78.4685 80.7384 80.7434 78.4066 83.5301 75.6767C88.478 70.8426 88.5917 70.7289 91.3216 70.7289C92.8572 70.7289 95.7576 71.127 97.805 71.5819ZM80.9708 91.2598L84.5538 92.3403L84.895 96.3214C85.5206 104.056 89.6154 110.539 102.298 123.904C114.867 137.156 121.635 147.108 125.047 157.459C126.867 162.919 127.436 168.094 126.582 170.71C125.672 173.383 120.838 173.611 113.388 171.336L109.919 170.255L109.236 165.933C108.326 160.587 104.743 153.251 100.478 148.075C98.8287 146.028 94.4496 141.194 90.7529 137.326C77.786 123.62 71.1319 113.156 68.2314 101.667C66.4684 94.8427 66.8665 91.146 69.4826 90.0654C71.2457 89.3261 76.5917 89.8948 80.9708 91.2598ZM41.5583 133.8C51.6247 137.497 60.3831 143.469 72.6106 155.014C77.2173 159.393 83.7007 165.023 86.9993 167.469C94.1083 172.872 105.881 178.957 111.853 180.379C114.127 180.891 116.004 181.516 116.004 181.687C116.004 181.857 113.672 184.246 110.886 187.033L105.767 192.037L101.615 191.753C89.8998 190.9 76.5917 183.165 59.985 167.412C51.511 159.393 46.1081 155.07 38.9991 150.691C33.9374 147.506 26.0891 143.98 21.5962 142.957C19.89 142.502 18.2976 142.047 18.0132 141.819C17.7857 141.649 19.89 139.203 22.7336 136.416L27.8521 131.412L32.2881 131.753C35.1318 131.923 38.3735 132.663 41.5583 133.8Z" fill="white"/>
</svg>
