<svg width="200" height="200" viewBox="0 0 200 200" fill="none" xmlns="http://www.w3.org/2000/svg">
<path d="M100 7.76494e-07C88.8733 -0.0018681 78.0075 3.36981 68.8365 9.67014C59.6654 15.9705 52.62 24.9033 48.63 35.29C44.482 34.0939 40.2767 33.106 36.03 32.33C27.2962 30.7488 18.4357 29.9722 9.56 30.01L7.84 30.05L7.36 30.07C5.48543 30.1449 3.70478 30.9104 2.36078 32.2194C1.01678 33.5283 0.204399 35.2881 0.079999 37.16L0.0699997 37.36L0.0500011 37.85C-0.0183755 40.4632 -0.00170125 43.0779 0.0999999 45.69C0.3 50.82 0.86 57.96 2.33 66.03C3.67 73.38 5.81 81.68 9.23 90H7.5C5.51088 90 3.60322 90.7902 2.1967 92.1967C0.790175 93.6032 0 95.5109 0 97.5V100C0 155.23 44.77 200 100 200C155.23 200 200 155.23 200 100V97.5C200 95.5109 199.21 93.6032 197.803 92.1967C196.397 90.7902 194.489 90 192.5 90H189.97C190.253 78.9637 186.782 68.1579 180.127 59.3498C173.471 50.5416 164.024 44.2522 153.33 41.51C150.324 29.643 143.446 19.1174 133.785 11.599C124.124 4.08069 112.232 -0.000990563 99.99 7.76494e-07H100ZM62.73 40.4C65.6578 32.9308 70.7634 26.5142 77.3839 21.9833C84.0045 17.4524 91.8343 15.0164 99.8568 14.9916C107.879 14.9668 115.724 17.3543 122.372 21.8442C129.021 26.3341 134.166 32.719 137.14 40.17C128.541 40.8928 120.287 43.8838 113.221 48.838C106.156 53.7921 100.53 60.532 96.92 68.37C94.223 64.3747 91.1525 60.6446 87.75 57.23C80.26 49.74 71.55 44.33 62.73 40.4ZM175 88.75C175 89.17 174.99 89.59 174.97 90H107.68L107.5 89.5V88.75C107.5 79.7989 111.056 71.2145 117.385 64.8851C123.715 58.5558 132.299 55 141.25 55C150.201 55 158.786 58.5558 165.115 64.8851C171.444 71.2145 175 79.7989 175 88.75ZM77.14 67.84C83.57 74.26 88.23 81.99 91.59 90H70.59L52.8 72.2C52.1134 71.4631 51.2854 70.8721 50.3654 70.4622C49.4454 70.0523 48.4523 69.8318 47.4452 69.8141C46.4382 69.7963 45.4379 69.9816 44.504 70.3588C43.5701 70.736 42.7218 71.2974 42.0096 72.0096C41.2974 72.7218 40.736 73.5701 40.3588 74.504C39.9816 75.4379 39.7963 76.4382 39.8141 77.4452C39.8319 78.4522 40.0523 79.4454 40.4622 80.3654C40.8721 81.2854 41.4631 82.1134 42.2 82.8L49.4 90H25.7C21.3 81.24 18.66 71.87 17.1 63.33C16.006 57.3112 15.3376 51.2228 15.1 45.11V45.09C19.7 45.26 26.12 45.77 33.33 47.09C47.93 49.76 64.93 55.59 77.16 67.84H77.14ZM27.88 145H172.12C164.486 157.244 153.858 167.342 141.24 174.34C128.622 181.339 114.429 185.007 100 185C85.571 185.007 71.3779 181.339 58.7597 174.34C46.1415 167.342 35.5141 157.244 27.88 145ZM15.14 105H184.85C184.36 113.554 182.573 121.983 179.55 130H20.45C17.4278 121.983 15.6407 113.554 15.15 105H15.14Z" fill="#6C733D"/>
</svg>
