<svg width="200" height="200" viewBox="0 0 200 200" fill="none" xmlns="http://www.w3.org/2000/svg">
<path d="M157.832 143.911L200 186.069L186.069 200L143.911 157.832C128.224 170.407 108.713 177.246 88.6088 177.218C39.6968 177.218 0 137.521 0 88.6088C0 39.6968 39.6968 0 88.6088 0C137.521 0 177.218 39.6968 177.218 88.6088C177.246 108.713 170.407 128.224 157.832 143.911ZM138.082 136.605C150.577 123.756 157.555 106.532 157.527 88.6088C157.527 50.5366 126.681 19.6909 88.6088 19.6909C50.5366 19.6909 19.6909 50.5366 19.6909 88.6088C19.6909 126.681 50.5366 157.527 88.6088 157.527C106.532 157.555 123.756 150.577 136.605 138.082L138.082 136.605Z" fill="#F2F2F2"/>
</svg>
